<svg width="120" height="44" viewBox="0 0 120 44" fill="none" xmlns="http://www.w3.org/2000/svg">
<path fill-rule="evenodd" clip-rule="evenodd" d="M30.2232 0.248251C30.02 0.282846 27.6995 0.838736 27.4927 0.910151C28.535 0.90275 29.5263 1.10706 30.4967 1.75991C31.8799 2.69052 32.2843 3.59237 32.9571 5.29775C34.0789 8.14112 32.8124 11.4348 32.8124 11.4348C32.8124 11.4348 32.265 13.8135 31.2927 15.6225C30.3254 17.422 28.5428 19.5484 26.8785 21.2541C25.1229 23.0532 22.1069 24.818 19.8591 25.9471C17.3444 27.2103 14.9599 27.68 14.9599 27.68C14.9142 28.284 14.873 28.8698 14.8368 29.4138C14.8352 29.4376 14.8336 29.4613 14.832 29.485C14.832 29.485 19.7966 28.228 21.9736 27.4679C23.5738 26.9092 25.6843 25.9814 26.7497 25.4463C28.9974 24.3171 32.0135 22.5523 33.769 20.7532C35.4334 19.0476 37.216 16.9212 38.1833 15.1216C39.1556 13.3126 39.7029 10.9339 39.7029 10.9339C39.7029 10.9339 40.5353 7.64025 39.4135 4.79688C38.9116 3.52484 38.1109 2.48646 38.1109 2.48646C38.1109 2.48646 37.1592 1.43775 36.1571 0.898058C34.1056 -0.206761 32.3811 -0.119314 30.2232 0.248251ZM3.64941 43.9973C4.573 44.0257 5.41015 43.8293 6.21693 43.4605C5.90927 43.3854 5.6138 43.2727 5.31378 43.1309C5.02499 42.9944 4.53561 42.5898 4.15595 42.1201C3.61174 41.4468 3.35993 40.1707 3.35993 40.1707C3.35993 40.1707 3.28983 39.214 3.35993 38.6544C3.47078 37.7697 3.64112 37.2356 3.93885 36.4162C4.34653 35.2943 4.70463 34.8529 5.38451 34.015C5.45393 33.9295 5.52671 33.8398 5.60324 33.7448C6.23751 32.9576 7.45418 32.1337 8.20837 31.651C8.96969 31.1637 9.31742 30.9752 9.65135 30.7941C9.8476 30.6877 10.0391 30.5839 10.3069 30.4236H7.77418C7.50687 30.5836 7.207 30.7464 6.87418 30.9272C6.30602 31.2357 5.64183 31.5963 4.87959 32.0842C4.12541 32.5669 2.90874 33.3908 2.27447 34.178C2.19794 34.273 2.12516 34.3627 2.05573 34.4482C1.37586 35.2861 1.01775 35.7275 0.610078 36.8494C0.312347 37.6688 0.142004 38.2029 0.0311579 39.0877C-0.0389471 39.6472 0.0311574 40.6039 0.0311574 40.6039C0.0311574 40.6039 0.282966 41.88 0.827172 42.5533C1.20684 43.023 1.69621 43.4276 1.985 43.5641C2.52235 43.818 3.04506 43.9787 3.64941 43.9973Z" fill="#F87777"/>
<path d="M24.6352 1.25452C24.6352 1.25452 23.4506 1.83176 22.7313 2.27117C21.5337 3.00272 20.8822 3.47032 19.8591 4.43134C18.0615 6.11976 17.3512 7.35079 16.1685 9.55759C14.9559 11.8203 14.4268 13.181 13.6357 15.6225C12.7013 18.5063 12.4289 19.743 11.9713 23.2035C11.4779 26.9356 11.1753 33.095 11.1753 33.095C11.1753 33.095 10.6784 40.852 6.97818 43.0587C6.72629 43.2089 6.47314 43.3434 6.21693 43.4605C6.46028 43.52 6.71127 43.5559 6.97818 43.5641C8.19509 43.6015 9.40664 43.1765 10.4517 42.5533C14.1519 40.3466 14.6488 32.5896 14.6488 32.5896C14.6488 32.5896 14.7136 31.2713 14.832 29.485C14.8336 29.4613 14.8352 29.4376 14.8368 29.4138C14.873 28.8698 14.9142 28.284 14.9599 27.68C14.9653 27.6095 14.9707 27.5388 14.9761 27.4679C15.1016 25.8385 15.2598 24.0976 15.4448 22.6981C15.9023 19.2376 16.1748 18.0009 17.1092 15.117C17.9003 12.6756 18.4294 11.3149 19.642 9.05219C20.8247 6.84538 23.3326 3.92594 23.3326 3.92594C23.3326 3.92594 25.4474 1.61649 27.4927 0.910151C26.5854 0.916594 24.6352 1.25452 24.6352 1.25452Z" fill="#F87777"/>
<path d="M31.756 40V30.28H34.168C34.752 30.28 35.216 30.388 35.56 30.604C35.912 30.812 36.168 31.116 36.328 31.516C36.488 31.916 36.568 32.4 36.568 32.968C36.568 33.48 36.476 33.924 36.292 34.3C36.116 34.676 35.852 34.968 35.5 35.176C35.148 35.376 34.708 35.476 34.18 35.476H33.112V40H31.756ZM33.112 34.504H33.736C34.128 34.504 34.436 34.46 34.66 34.372C34.884 34.284 35.044 34.132 35.14 33.916C35.236 33.692 35.284 33.38 35.284 32.98C35.284 32.516 35.248 32.16 35.176 31.912C35.112 31.664 34.972 31.492 34.756 31.396C34.54 31.3 34.204 31.252 33.748 31.252H33.112V34.504ZM37.5216 40V30.28H41.2896V31.288H38.8776V34.504H40.8336V35.464H38.8776V39.028H41.3136V40H37.5216ZM42.4083 40V30.28H46.1643V31.288H43.7643V40H42.4083ZM47.0021 40V30.28H48.2021V37.012L51.0461 30.28H52.0181V40H50.8301V33.16L48.0101 40H47.0021ZM55.9186 40.108C55.2306 40.108 54.6946 39.964 54.3106 39.676C53.9346 39.388 53.6706 39 53.5186 38.512C53.3746 38.024 53.3026 37.48 53.3026 36.88V33.448C53.3026 32.792 53.3746 32.22 53.5186 31.732C53.6706 31.244 53.9346 30.868 54.3106 30.604C54.6946 30.332 55.2306 30.196 55.9186 30.196C56.5266 30.196 57.0066 30.308 57.3586 30.532C57.7186 30.756 57.9746 31.076 58.1266 31.492C58.2866 31.908 58.3666 32.408 58.3666 32.992V33.76H57.0826V33.076C57.0826 32.716 57.0626 32.4 57.0226 32.128C56.9906 31.848 56.8946 31.632 56.7346 31.48C56.5746 31.328 56.3066 31.252 55.9306 31.252C55.5466 31.252 55.2666 31.336 55.0906 31.504C54.9146 31.664 54.7986 31.896 54.7426 32.2C54.6946 32.496 54.6706 32.844 54.6706 33.244V37.096C54.6706 37.584 54.7106 37.972 54.7906 38.26C54.8706 38.54 55.0026 38.74 55.1866 38.86C55.3706 38.98 55.6186 39.04 55.9306 39.04C56.2986 39.04 56.5626 38.96 56.7226 38.8C56.8826 38.632 56.9826 38.404 57.0226 38.116C57.0626 37.828 57.0826 37.492 57.0826 37.108V36.388H58.3666V37.108C58.3666 37.7 58.2946 38.224 58.1506 38.68C58.0066 39.128 57.7586 39.48 57.4066 39.736C57.0546 39.984 56.5586 40.108 55.9186 40.108ZM60.7263 40V31.288H59.0823V30.28H63.6783V31.288H62.0823V40H60.7263ZM64.5216 40V30.28H66.9336C67.5176 30.28 67.9816 30.388 68.3256 30.604C68.6776 30.812 68.9336 31.116 69.0936 31.516C69.2536 31.916 69.3336 32.4 69.3336 32.968C69.3336 33.48 69.2416 33.924 69.0576 34.3C68.8816 34.676 68.6176 34.968 68.2656 35.176C67.9136 35.376 67.4736 35.476 66.9456 35.476H65.8776V40H64.5216ZM65.8776 34.504H66.5016C66.8936 34.504 67.2016 34.46 67.4256 34.372C67.6496 34.284 67.8096 34.132 67.9056 33.916C68.0016 33.692 68.0496 33.38 68.0496 32.98C68.0496 32.516 68.0136 32.16 67.9416 31.912C67.8776 31.664 67.7376 31.492 67.5216 31.396C67.3056 31.3 66.9696 31.252 66.5136 31.252H65.8776V34.504ZM69.2202 40L71.2842 30.28H72.5922L74.6682 40H73.3842L72.9402 37.552H70.9602L70.4922 40H69.2202ZM71.1402 36.58H72.7602L71.9442 32.2L71.1402 36.58ZM81.0064 41.764L80.8984 40H75.6544V30.28H77.0104V39.028H79.7704V30.28H81.1264V39.028H82.0504V41.764H81.0064ZM83.1193 40V30.28H84.3193V37.012L87.1633 30.28H88.1353V40H86.9473V33.16L84.1273 40H83.1193ZM88.9998 40L91.0398 35.632C90.6078 35.44 90.2598 35.124 89.9958 34.684C89.7398 34.236 89.6118 33.664 89.6118 32.968C89.6118 32.448 89.7078 31.988 89.8998 31.588C90.0918 31.18 90.4118 30.86 90.8598 30.628C91.3078 30.396 91.9078 30.28 92.6598 30.28H94.6278V40H93.2718V35.968H92.5038C92.4878 35.968 92.4358 35.968 92.3478 35.968C92.2598 35.96 92.2078 35.956 92.1918 35.956L90.5118 40H88.9998ZM92.7678 34.996H93.2718V31.252H92.7318C92.1238 31.252 91.6638 31.384 91.3518 31.648C91.0478 31.912 90.8958 32.348 90.8958 32.956C90.8958 33.644 91.0358 34.156 91.3158 34.492C91.5958 34.828 92.0798 34.996 92.7678 34.996Z" fill="#1A1A1A"/>
<path d="M95.8628 37V36.028H98.5388V37H95.8628ZM99.7716 30.28H101.752V34.264H103.468V30.28H105.448V40H103.468V35.692H101.752V40H99.7716V30.28ZM109.631 40.132C108.599 40.132 107.867 39.856 107.435 39.304C107.003 38.744 106.787 37.94 106.787 36.892V33.412C106.787 32.34 106.999 31.532 107.423 30.988C107.855 30.436 108.591 30.16 109.631 30.16C110.623 30.16 111.323 30.404 111.731 30.892C112.147 31.372 112.355 32.064 112.355 32.968V33.784H110.435V32.884C110.435 32.596 110.419 32.364 110.387 32.188C110.363 32.012 110.291 31.868 110.171 31.756C110.059 31.636 109.883 31.576 109.643 31.576C109.283 31.576 109.051 31.692 108.947 31.924C108.843 32.156 108.791 32.496 108.791 32.944V37.36C108.791 37.816 108.851 38.156 108.971 38.38C109.091 38.604 109.315 38.716 109.643 38.716C109.979 38.716 110.195 38.604 110.291 38.38C110.387 38.148 110.435 37.808 110.435 37.36V36.412H112.355V37.216C112.355 38.144 112.151 38.864 111.743 39.376C111.335 39.88 110.631 40.132 109.631 40.132ZM113.588 30.28H115.568V34.228H115.844L117.344 30.28H119.3L117.5 34.852L119.408 40H117.38L115.844 35.656H115.568V40H113.588V30.28Z" fill="#F87777"/>
</svg>
